STARTFONT 2.1
FONT -FontForge-Frutiger LT 55 Roman-Book-R-Normal--24-240-75-75-P-129-ISO8859-1
SIZE 24 75 75
FONTBOUNDINGBOX 28 29 -4 -6
COMMENT "Generated by fontforge, http://fontforge.sourceforge.net"
COMMENT "Part of the digitally encoded machine readable outline data for producing the Typefaces provided is copyrighted (c) 1988, 1990, 1994, 2001, 2002, 2003, Linotype Library GmbH, www.linotype.com. All rights reserved. This software is the property of Linotype Library GmbH, and may not be reproduced, used, displayed, modified, disclosed or transferred Library GmbH. Copyright (c) 1988, 1990, 1994, 2001, 2002, 2003, Adobe Systems Incorporated. All rights reserved."
STARTPROPERTIES 40
FOUNDRY "FontForge"
FAMILY_NAME "Frutiger LT 55 Roman"
WEIGHT_NAME "Book"
SLANT "R"
SETWIDTH_NAME "Normal"
ADD_STYLE_NAME ""
PIXEL_SIZE 24
POINT_SIZE 240
RESOLUTION_X 75
RESOLUTION_Y 75
SPACING "P"
AVERAGE_WIDTH 129
CHARSET_REGISTRY "ISO8859"
CHARSET_ENCODING "1"
FONTNAME_REGISTRY ""
CHARSET_COLLECTIONS "ISOLatin1Encoding"
FONT_NAME "FrutigerLT-Roman"
FACE_NAME "Frutiger LT 55 Roman"
COPYRIGHT "Part of the digitally encoded machine readable outline data for producing the Typefaces provided is copyrighted (c) 1988, 1990, 1994, 2001, 2002, 2003, Linotype Library GmbH, www.linotype.com. All rights reserved. This software is the property of Linotype Library GmbH, and may not be reproduced, used, displayed, modified, disclosed or transferred Library GmbH. Copyright (c) 1988, 1990, 1994, 2001, 2002, 2003, Adobe Systems Incorporated. All rights reserved."
FONT_VERSION "6.04"
FONT_ASCENT 19
FONT_DESCENT 5
UNDERLINE_POSITION -3
UNDERLINE_THICKNESS 2
X_HEIGHT 11
CAP_HEIGHT 16
RAW_ASCENT 800
RAW_DESCENT 200
NORM_SPACE 7
RELATIVE_WEIGHT 40
RELATIVE_SETWIDTH 50
SUPERSCRIPT_X 0
SUPERSCRIPT_Y 6
SUPERSCRIPT_SIZE 4
SUBSCRIPT_X 0
SUBSCRIPT_Y 6
SUBSCRIPT_SIZE 4
FIGURE_WIDTH 13
AVG_LOWERCASE_WIDTH 129
AVG_UPPERCASE_WIDTH 154
ENDPROPERTIES
CHARS 232
STARTCHAR space
ENCODING 32
SWIDTH 278 0
DWIDTH 7 0
BBX 1 1 0 0
BITMAP
00
ENDCHAR
STARTCHAR exclam
ENCODING 33
SWIDTH 389 0
DWIDTH 9 0
BBX 3 17 3 0
BITMAP
E0
E0
E0
E0
E0
E0
E0
E0
C0
C0
C0
C0
00
00
E0
E0
E0
ENDCHAR
STARTCHAR quotedbl
ENCODING 34
SWIDTH 556 0
DWIDTH 13 0
BBX 6 6 4 11
BITMAP
CC
CC
CC
CC
CC
CC
ENDCHAR
STARTCHAR numbersign
ENCODING 35
SWIDTH 556 0
DWIDTH 13 0
BBX 12 17 0 0
BITMAP
0C60
0C60
0C40
0C40
0CC0
7FF0
7FF0
18C0
18C0
18C0
FFF0
FFF0
1180
3180
3180
3180
3180
ENDCHAR
STARTCHAR dollar
ENCODING 36
SWIDTH 556 0
DWIDTH 13 0
BBX 9 21 2 -2
BITMAP
0800
0800
1F00
7F80
E900
C800
C800
C800
F800
7C00
3E00
0F00
0B80
0980
0980
0980
8B80
FF00
FE00
0800
0800
ENDCHAR
STARTCHAR percent
ENCODING 37
SWIDTH 1000 0
DWIDTH 24 0
BBX 18 18 3 -1
BITMAP
380600
7C0400
C60C00
C61800
C61800
C63000
C62000
C66700
7CCF80
38D8C0
0198C0
0198C0
0318C0
0218C0
0618C0
0C0F80
0C0700
180000
ENDCHAR
STARTCHAR ampersand
ENCODING 38
SWIDTH 722 0
DWIDTH 17 0
BBX 14 17 2 0
BITMAP
0F00
1FC0
38C0
30C0
30C0
39C0
1B80
0F00
3E18
7718
E398
C1F0
C0F0
C060
E0F0
7FD8
1F1C
ENDCHAR
STARTCHAR quotesingle
ENCODING 39
SWIDTH 278 0
DWIDTH 7 0
BBX 2 6 2 11
BITMAP
C0
C0
C0
C0
C0
C0
ENDCHAR
STARTCHAR parenleft
ENCODING 40
SWIDTH 333 0
DWIDTH 8 0
BBX 6 21 2 -3
BITMAP
0C
18
38
30
70
60
60
C0
C0
C0
C0
C0
C0
C0
60
60
60
30
38
18
0C
ENDCHAR
STARTCHAR parenright
ENCODING 41
SWIDTH 333 0
DWIDTH 8 0
BBX 6 21 0 -3
BITMAP
C0
60
70
30
38
18
18
0C
0C
0C
0C
0C
0C
0C
18
18
38
30
70
60
C0
ENDCHAR
STARTCHAR asterisk
ENCODING 42
SWIDTH 556 0
DWIDTH 13 0
BBX 10 9 2 8
BITMAP
0C00
0C00
8C80
FFC0
7F80
0C00
1E00
3300
6380
ENDCHAR
STARTCHAR plus
ENCODING 43
SWIDTH 600 0
DWIDTH 14 0
BBX 12 12 1 0
BITMAP
0600
0600
0600
0600
0600
FFF0
FFF0
0600
0600
0600
0600
0600
ENDCHAR
STARTCHAR comma
ENCODING 44
SWIDTH 278 0
DWIDTH 7 0
BBX 5 6 0 -3
BITMAP
38
30
70
70
60
E0
ENDCHAR
STARTCHAR hyphen
ENCODING 45
SWIDTH 333 0
DWIDTH 8 0
BBX 6 2 1 5
BITMAP
FC
FC
ENDCHAR
STARTCHAR period
ENCODING 46
SWIDTH 278 0
DWIDTH 7 0
BBX 3 3 2 0
BITMAP
E0
E0
E0
ENDCHAR
STARTCHAR slash
ENCODING 47
SWIDTH 278 0
DWIDTH 7 0
BBX 8 17 -1 0
BITMAP
03
06
06
06
0C
0C
0C
18
18
18
30
30
30
60
60
E0
C0
ENDCHAR
STARTCHAR zero
ENCODING 48
SWIDTH 556 0
DWIDTH 13 0
BBX 11 17 1 0
BITMAP
1F00
3F80
71C0
60C0
E0C0
C060
C060
C060
C060
C060
C060
C060
E0C0
60C0
71C0
3F80
1F00
ENDCHAR
STARTCHAR one
ENCODING 49
SWIDTH 556 0
DWIDTH 13 0
BBX 6 17 2 0
BITMAP
0C
3C
7C
EC
4C
0C
0C
0C
0C
0C
0C
0C
0C
0C
0C
0C
0C
ENDCHAR
STARTCHAR two
ENCODING 50
SWIDTH 556 0
DWIDTH 13 0
BBX 10 17 1 0
BITMAP
3E00
7F80
4180
00C0
00C0
00C0
00C0
0180
0380
0700
0E00
1C00
3800
7000
E000
FFC0
FFC0
ENDCHAR
STARTCHAR three
ENCODING 51
SWIDTH 556 0
DWIDTH 13 0
BBX 10 17 1 0
BITMAP
7E00
7F80
4180
00C0
00C0
00C0
0180
3F00
3E00
0380
01C0
00C0
00C0
00C0
83C0
FF80
7E00
ENDCHAR
STARTCHAR four
ENCODING 52
SWIDTH 556 0
DWIDTH 13 0
BBX 12 17 0 0
BITMAP
01C0
03C0
07C0
06C0
0CC0
0CC0
18C0
30C0
30C0
60C0
60C0
FFF0
FFF0
00C0
00C0
00C0
00C0
ENDCHAR
STARTCHAR five
ENCODING 53
SWIDTH 556 0
DWIDTH 13 0
BBX 9 17 2 0
BITMAP
FF80
FF80
C000
C000
C000
C000
FC00
FF00
8700
0380
0180
0180
0180
0380
8700
FE00
FC00
ENDCHAR
STARTCHAR six
ENCODING 54
SWIDTH 556 0
DWIDTH 13 0
BBX 10 17 1 0
BITMAP
0FC0
3FC0
3080
6000
6000
C000
DF00
FF80
F1C0
E0C0
C0C0
C0C0
C0C0
60C0
71C0
3F80
1F00
ENDCHAR
STARTCHAR seven
ENCODING 55
SWIDTH 556 0
DWIDTH 13 0
BBX 11 17 1 0
BITMAP
FFE0
FFE0
00E0
00C0
01C0
0180
0380
0380
0300
0700
0600
0E00
0E00
1C00
1C00
1800
3800
ENDCHAR
STARTCHAR eight
ENCODING 56
SWIDTH 556 0
DWIDTH 13 0
BBX 11 17 1 0
BITMAP
1F00
7FC0
70C0
E0C0
C0C0
60C0
7180
3F00
1F80
73C0
E0E0
C060
C060
C060
60C0
7FC0
1F00
ENDCHAR
STARTCHAR nine
ENCODING 57
SWIDTH 556 0
DWIDTH 13 0
BBX 10 17 2 0
BITMAP
3E00
7F00
E380
C180
C0C0
C0C0
C0C0
C1C0
E3C0
7FC0
3EC0
00C0
0180
0180
8300
FF00
FC00
ENDCHAR
STARTCHAR colon
ENCODING 58
SWIDTH 278 0
DWIDTH 7 0
BBX 3 12 2 0
BITMAP
E0
E0
E0
00
00
00
00
00
00
E0
E0
E0
ENDCHAR
STARTCHAR semicolon
ENCODING 59
SWIDTH 278 0
DWIDTH 7 0
BBX 5 16 0 -4
BITMAP
38
38
38
00
00
00
00
00
00
00
38
30
70
60
60
E0
ENDCHAR
STARTCHAR less
ENCODING 60
SWIDTH 600 0
DWIDTH 14 0
BBX 12 12 1 0
BITMAP
0030
00F0
03C0
1F00
7C00
F000
F000
7C00
0F80
03E0
00F0
0030
ENDCHAR
STARTCHAR equal
ENCODING 61
SWIDTH 600 0
DWIDTH 14 0
BBX 12 7 1 3
BITMAP
FFF0
FFF0
0000
0000
0000
FFF0
FFF0
ENDCHAR
STARTCHAR greater
ENCODING 62
SWIDTH 600 0
DWIDTH 14 0
BBX 12 12 1 0
BITMAP
C000
F000
3C00
0F80
03E0
00F0
00F0
03E0
0F00
7C00
F000
C000
ENDCHAR
STARTCHAR question
ENCODING 63
SWIDTH 500 0
DWIDTH 12 0
BBX 9 17 2 0
BITMAP
7E00
FF00
8380
0180
0180
0180
0380
0300
0600
0C00
1C00
1800
0000
0000
1C00
1C00
1C00
ENDCHAR
STARTCHAR at
ENCODING 64
SWIDTH 800 0
DWIDTH 19 0
BBX 16 17 1 0
BITMAP
03E0
0FF8
380C
7006
63DB
E7FB
CE33
CC33
CC33
DC23
CC66
CFEC
67F8
7006
380C
1FF8
07E0
ENDCHAR
STARTCHAR A
ENCODING 65
SWIDTH 722 0
DWIDTH 17 0
BBX 16 17 0 0
BITMAP
0180
03C0
03C0
0240
0660
0660
0C30
0C30
1838
1818
1818
3FFC
3FFC
600E
6006
C006
C003
ENDCHAR
STARTCHAR B
ENCODING 66
SWIDTH 611 0
DWIDTH 15 0
BBX 11 17 2 0
BITMAP
FF00
FF80
C1C0
C0C0
C0C0
C0C0
C1C0
FF00
FF00
C1C0
C0C0
C0C0
C060
C0C0
C1C0
FF80
FF00
ENDCHAR
STARTCHAR C
ENCODING 67
SWIDTH 611 0
DWIDTH 15 0
BBX 13 17 1 0
BITMAP
03F0
0FF8
3C10
7000
6000
E000
C000
C000
C000
C000
C000
E000
6000
7000
3C08
1FF8
03F0
ENDCHAR
STARTCHAR D
ENCODING 68
SWIDTH 722 0
DWIDTH 17 0
BBX 13 17 2 0
BITMAP
FF00
FFC0
C0E0
C070
C030
C018
C018
C018
C018
C018
C018
C018
C038
C030
C0E0
FFC0
FF00
ENDCHAR
STARTCHAR E
ENCODING 69
SWIDTH 556 0
DWIDTH 13 0
BBX 9 17 2 0
BITMAP
FF80
FF80
C000
C000
C000
C000
C000
FF80
FF80
C000
C000
C000
C000
C000
C000
FF80
FF80
ENDCHAR
STARTCHAR F
ENCODING 70
SWIDTH 500 0
DWIDTH 12 0
BBX 9 17 2 0
BITMAP
FF80
FF80
C000
C000
C000
C000
C000
FF80
FF80
C000
C000
C000
C000
C000
C000
C000
C000
ENDCHAR
STARTCHAR G
ENCODING 71
SWIDTH 722 0
DWIDTH 17 0
BBX 14 17 1 0
BITMAP
03F8
0FFC
1C0C
3800
7000
6000
6000
E000
C0FC
E0FC
600C
600C
700C
380C
1C0C
0FFC
03F8
ENDCHAR
STARTCHAR H
ENCODING 72
SWIDTH 722 0
DWIDTH 17 0
BBX 12 17 2 0
BITMAP
C030
C030
C030
C030
C030
C030
C030
FFF0
FFF0
C030
C030
C030
C030
C030
C030
C030
C030
ENDCHAR
STARTCHAR I
ENCODING 73
SWIDTH 278 0
DWIDTH 7 0
BBX 2 17 2 0
BITMAP
C0
C0
C0
C0
C0
C0
C0
C0
C0
C0
C0
C0
C0
C0
C0
C0
C0
ENDCHAR
STARTCHAR J
ENCODING 74
SWIDTH 389 0
DWIDTH 9 0
BBX 6 17 1 0
BITMAP
0C
0C
0C
0C
0C
0C
0C
0C
0C
0C
0C
0C
0C
0C
1C
F8
F0
ENDCHAR
STARTCHAR K
ENCODING 75
SWIDTH 667 0
DWIDTH 16 0
BBX 13 17 2 0
BITMAP
C070
C0E0
C1C0
C380
C700
CC00
D800
F000
F000
D800
CC00
C600
C300
C180
C0C0
C0E0
C078
ENDCHAR
STARTCHAR L
ENCODING 76
SWIDTH 500 0
DWIDTH 12 0
BBX 9 17 2 0
BITMAP
C000
C000
C000
C000
C000
C000
C000
C000
C000
C000
C000
C000
C000
C000
C000
FF80
FF80
ENDCHAR
STARTCHAR M
ENCODING 77
SWIDTH 944 0
DWIDTH 23 0
BBX 18 17 2 0
BITMAP
F001C0
F003C0
F003C0
D806C0
D806C0
CC04C0
CC0CC0
CC0CC0
C618C0
C618C0
C210C0
C330C0
C320C0
C1E0C0
C1E0C0
C0C0C0
C0C0C0
ENDCHAR
STARTCHAR N
ENCODING 78
SWIDTH 722 0
DWIDTH 17 0
BBX 13 17 2 0
BITMAP
E018
E018
F018
D818
D818
CC18
CC18
C618
C318
C318
C198
C198
C0D8
C078
C078
C038
C038
ENDCHAR
STARTCHAR O
ENCODING 79
SWIDTH 778 0
DWIDTH 19 0
BBX 16 17 1 0
BITMAP
07E0
1FF8
383C
700C
6006
E006
C006
C003
C003
C007
C006
C006
6006
700C
381C
1FF8
07E0
ENDCHAR
STARTCHAR P
ENCODING 80
SWIDTH 556 0
DWIDTH 13 0
BBX 10 17 2 0
BITMAP
FE00
FF80
C1C0
C0C0
C0C0
C0C0
C0C0
C1C0
FF80
FE00
C000
C000
C000
C000
C000
C000
C000
ENDCHAR
STARTCHAR Q
ENCODING 81
SWIDTH 778 0
DWIDTH 19 0
BBX 16 20 1 -3
BITMAP
07E0
1FF8
383C
700C
6006
E006
C006
C003
C003
C007
C006
C006
6006
700C
381C
1FF8
07E0
0038
001C
000E
ENDCHAR
STARTCHAR R
ENCODING 82
SWIDTH 611 0
DWIDTH 15 0
BBX 12 17 2 0
BITMAP
FF00
FF80
C1C0
C0C0
C0C0
C0C0
C180
FF00
FE00
C300
C380
C180
C1C0
C0C0
C0C0
C060
C070
ENDCHAR
STARTCHAR S
ENCODING 83
SWIDTH 500 0
DWIDTH 12 0
BBX 9 17 1 0
BITMAP
1F00
7F80
E100
C000
C000
C000
F000
7C00
1E00
0700
0380
0180
0180
0180
8300
FF00
7C00
ENDCHAR
STARTCHAR T
ENCODING 84
SWIDTH 556 0
DWIDTH 13 0
BBX 12 17 0 0
BITMAP
FFF0
FFF0
0600
0600
0600
0600
0600
0600
0600
0600
0600
0600
0600
0600
0600
0600
0600
ENDCHAR
STARTCHAR U
ENCODING 85
SWIDTH 722 0
DWIDTH 17 0
BBX 13 17 2 0
BITMAP
C018
C018
C018
C018
C018
C018
C018
C018
C018
C018
C018
C018
C018
6030
7070
3FE0
0F80
ENDCHAR
STARTCHAR V
ENCODING 86
SWIDTH 667 0
DWIDTH 16 0
BBX 15 17 0 0
BITMAP
C006
C00C
600C
600C
6018
3018
3018
3830
1830
1860
0C60
0C60
0CC0
06C0
06C0
0780
0380
ENDCHAR
STARTCHAR W
ENCODING 87
SWIDTH 1000 0
DWIDTH 24 0
BBX 23 17 0 0
BITMAP
C03806
C03806
E0380C
606C0C
606C0C
604C18
30C418
30C618
30C610
188630
198330
198330
198360
0D0360
0F01E0
0F01C0
0701C0
ENDCHAR
STARTCHAR X
ENCODING 88
SWIDTH 667 0
DWIDTH 16 0
BBX 15 17 0 0
BITMAP
E01C
7018
3830
1870
0C60
0EC0
07C0
0380
0380
07C0
0EC0
0CE0
1870
3830
3038
601C
E01E
ENDCHAR
STARTCHAR Y
ENCODING 89
SWIDTH 667 0
DWIDTH 16 0
BBX 15 17 0 0
BITMAP
E006
700C
381C
1818
1C30
0C30
0660
0760
03C0
0180
0180
0180
0180
0180
0180
0180
0180
ENDCHAR
STARTCHAR Z
ENCODING 90
SWIDTH 556 0
DWIDTH 13 0
BBX 11 17 1 0
BITMAP
FFE0
FFE0
00E0
00C0
0180
0380
0300
0600
0E00
0C00
1800
3800
3000
6000
E000
FFE0
FFE0
ENDCHAR
STARTCHAR bracketleft
ENCODING 91
SWIDTH 333 0
DWIDTH 8 0
BBX 5 21 2 -3
BITMAP
F8
F8
C0
C0
C0
C0
C0
C0
C0
C0
C0
C0
C0
C0
C0
C0
C0
C0
C0
F8
F8
ENDCHAR
STARTCHAR backslash
ENCODING 92
SWIDTH 278 0
DWIDTH 7 0
BBX 8 17 -1 0
BITMAP
C0
60
60
60
30
30
30
18
18
18
0C
0C
0C
06
06
06
03
ENDCHAR
STARTCHAR bracketright
ENCODING 93
SWIDTH 333 0
DWIDTH 8 0
BBX 5 21 1 -3
BITMAP
F8
F8
18
18
18
18
18
18
18
18
18
18
18
18
18
18
18
18
18
F8
F8
ENDCHAR
STARTCHAR asciicircum
ENCODING 94
SWIDTH 600 0
DWIDTH 14 0
BBX 12 10 1 7
BITMAP
0600
0700
0F00
0D80
1980
18C0
30C0
3060
6060
E030
ENDCHAR
STARTCHAR underscore
ENCODING 95
SWIDTH 500 0
DWIDTH 12 0
BBX 12 1 0 -3
BITMAP
FFF0
ENDCHAR
STARTCHAR grave
ENCODING 96
SWIDTH 278 0
DWIDTH 7 0
BBX 5 3 0 14
BITMAP
E0
70
38
ENDCHAR
STARTCHAR a
ENCODING 97
SWIDTH 556 0
DWIDTH 13 0
BBX 10 12 1 0
BITMAP
1F00
7F80
41C0
00C0
00C0
1FC0
78C0
C0C0
C0C0
C1C0
FFC0
3EC0
ENDCHAR
STARTCHAR b
ENCODING 98
SWIDTH 611 0
DWIDTH 15 0
BBX 11 18 2 0
BITMAP
C000
C000
C000
C000
C000
C000
CF00
FFC0
E0C0
E060
C060
C060
C060
C060
E060
E0C0
FFC0
CF00
ENDCHAR
STARTCHAR c
ENCODING 99
SWIDTH 444 0
DWIDTH 11 0
BBX 9 12 1 0
BITMAP
0F80
3F80
7000
E000
C000
C000
C000
C000
6000
7000
3F80
0F80
ENDCHAR
STARTCHAR d
ENCODING 100
SWIDTH 611 0
DWIDTH 15 0
BBX 11 18 1 0
BITMAP
0060
0060
0060
0060
0060
0060
3E60
7FE0
E0E0
C0E0
C060
C060
C060
C060
C0E0
E0E0
7FE0
3E60
ENDCHAR
STARTCHAR e
ENCODING 101
SWIDTH 556 0
DWIDTH 13 0
BBX 11 12 1 0
BITMAP
1F00
3F80
60C0
E0C0
C060
C060
FFE0
C000
C000
6040
3FC0
1FC0
ENDCHAR
STARTCHAR f
ENCODING 102
SWIDTH 389 0
DWIDTH 9 0
BBX 8 18 0 0
BITMAP
07
0F
18
18
18
18
FF
FF
18
18
18
18
18
18
18
18
18
18
ENDCHAR
STARTCHAR g
ENCODING 103
SWIDTH 611 0
DWIDTH 15 0
BBX 11 17 1 -5
BITMAP
1F60
7FE0
60E0
C0E0
C060
C060
C060
C060
C0E0
E0E0
7FE0
3E60
0060
0060
80C0
7FC0
3F00
ENDCHAR
STARTCHAR h
ENCODING 104
SWIDTH 611 0
DWIDTH 15 0
BBX 11 18 2 0
BITMAP
C000
C000
C000
C000
C000
C000
CF80
FFC0
E0E0
E060
C060
C060
C060
C060
C060
C060
C060
C060
ENDCHAR
STARTCHAR i
ENCODING 105
SWIDTH 278 0
DWIDTH 7 0
BBX 2 18 2 0
BITMAP
C0
C0
C0
00
00
00
C0
C0
C0
C0
C0
C0
C0
C0
C0
C0
C0
C0
ENDCHAR
STARTCHAR j
ENCODING 106
SWIDTH 278 0
DWIDTH 6 0
BBX 5 23 -1 -5
BITMAP
18
18
18
00
00
00
18
18
18
18
18
18
18
18
18
18
18
18
18
18
18
F0
F0
ENDCHAR
STARTCHAR k
ENCODING 107
SWIDTH 556 0
DWIDTH 13 0
BBX 10 18 2 0
BITMAP
C000
C000
C000
C000
C000
C000
C1C0
C300
CE00
DC00
F800
F000
D800
CC00
CE00
C700
C380
C1C0
ENDCHAR
STARTCHAR l
ENCODING 108
SWIDTH 278 0
DWIDTH 7 0
BBX 2 18 2 0
BITMAP
C0
C0
C0
C0
C0
C0
C0
C0
C0
C0
C0
C0
C0
C0
C0
C0
C0
C0
ENDCHAR
STARTCHAR m
ENCODING 109
SWIDTH 889 0
DWIDTH 22 0
BBX 18 12 2 0
BITMAP
CF0F00
FFBF80
E1E1C0
E0E0C0
C0C0C0
C0C0C0
C0C0C0
C0C0C0
C0C0C0
C0C0C0
C0C0C0
C0C0C0
ENDCHAR
STARTCHAR n
ENCODING 110
SWIDTH 611 0
DWIDTH 15 0
BBX 11 12 2 0
BITMAP
CF80
FFC0
E0E0
E060
C060
C060
C060
C060
C060
C060
C060
C060
ENDCHAR
STARTCHAR o
ENCODING 111
SWIDTH 611 0
DWIDTH 15 0
BBX 12 12 1 0
BITMAP
1F80
3FC0
7060
E070
C030
C030
C030
C030
6070
6060
3FC0
1F80
ENDCHAR
STARTCHAR p
ENCODING 112
SWIDTH 611 0
DWIDTH 15 0
BBX 11 17 2 -5
BITMAP
CF00
FFC0
E0C0
E060
C060
C060
C060
C060
E060
E0C0
FFC0
CF00
C000
C000
C000
C000
C000
ENDCHAR
STARTCHAR q
ENCODING 113
SWIDTH 611 0
DWIDTH 15 0
BBX 11 17 2 -5
BITMAP
3E60
7FE0
E0E0
C0E0
C060
C060
C060
C060
C0E0
E0E0
7FE0
3E60
0060
0060
0060
0060
0060
ENDCHAR
STARTCHAR r
ENCODING 114
SWIDTH 389 0
DWIDTH 9 0
BBX 7 12 2 0
BITMAP
DE
FE
E0
E0
C0
C0
C0
C0
C0
C0
C0
C0
ENDCHAR
STARTCHAR s
ENCODING 115
SWIDTH 389 0
DWIDTH 9 0
BBX 7 12 1 0
BITMAP
3E
FE
C0
C0
E0
78
3C
0E
06
86
FC
F8
ENDCHAR
STARTCHAR t
ENCODING 116
SWIDTH 389 0
DWIDTH 9 0
BBX 9 16 0 0
BITMAP
0800
1800
1800
1800
FF00
FF00
1800
1800
1800
1800
1800
1800
1800
1800
1F80
0F80
ENDCHAR
STARTCHAR u
ENCODING 117
SWIDTH 611 0
DWIDTH 15 0
BBX 11 12 1 0
BITMAP
C060
C060
C060
C060
C060
C060
C060
C060
C0E0
E0E0
7FE0
3E60
ENDCHAR
STARTCHAR v
ENCODING 118
SWIDTH 500 0
DWIDTH 12 0
BBX 11 12 1 0
BITMAP
C060
C0C0
60C0
6180
6180
3180
3300
3300
1B00
1E00
1E00
0E00
ENDCHAR
STARTCHAR w
ENCODING 119
SWIDTH 833 0
DWIDTH 20 0
BBX 19 12 0 0
BITMAP
C06060
60F060
60F060
60B0C0
3198C0
3198C0
311980
1B0D80
1B0D80
1A0D00
0E0700
0E0700
ENDCHAR
STARTCHAR x
ENCODING 120
SWIDTH 500 0
DWIDTH 12 0
BBX 11 12 1 0
BITMAP
E0C0
6180
3180
3B00
1E00
0E00
1E00
1F00
3300
6180
61C0
C0E0
ENDCHAR
STARTCHAR y
ENCODING 121
SWIDTH 500 0
DWIDTH 12 0
BBX 12 17 0 -5
BITMAP
E070
6060
6060
30C0
30C0
3080
1980
1980
0900
0F00
0F00
0600
0600
0400
0C00
7800
7000
ENDCHAR
STARTCHAR z
ENCODING 122
SWIDTH 500 0
DWIDTH 12 0
BBX 10 12 1 0
BITMAP
FF80
FF80
0380
0300
0600
0C00
1800
3000
6000
E000
FFC0
FFC0
ENDCHAR
STARTCHAR braceleft
ENCODING 123
SWIDTH 333 0
DWIDTH 8 0
BBX 7 21 1 -3
BITMAP
1E
3E
30
30
30
30
30
30
30
70
E0
E0
70
30
30
30
30
30
30
3E
1E
ENDCHAR
STARTCHAR bar
ENCODING 124
SWIDTH 222 0
DWIDTH 5 0
BBX 2 24 2 -6
BITMAP
C0
C0
C0
C0
C0
C0
C0
C0
C0
C0
C0
C0
C0
C0
C0
C0
C0
C0
C0
C0
C0
C0
C0
C0
ENDCHAR
STARTCHAR braceright
ENCODING 125
SWIDTH 333 0
DWIDTH 8 0
BBX 7 21 0 -3
BITMAP
F0
F8
18
18
18
18
18
18
18
1C
0E
0E
1C
18
18
18
18
18
18
F8
F0
ENDCHAR
STARTCHAR asciitilde
ENCODING 126
SWIDTH 600 0
DWIDTH 14 0
BBX 11 4 2 4
BITMAP
7840
FF60
C7C0
8180
ENDCHAR
STARTCHAR Zcaron
ENCODING 142
SWIDTH 556 0
DWIDTH 13 0
BBX 11 21 1 0
BITMAP
3300
1E00
0C00
0000
FFE0
FFE0
00E0
00C0
0180
0380
0300
0600
0E00
0C00
1800
3800
3000
6000
E000
FFE0
FFE0
ENDCHAR
STARTCHAR zcaron
ENCODING 158
SWIDTH 500 0
DWIDTH 12 0
BBX 10 17 1 0
BITMAP
3300
1E00
0C00
0000
0000
FF80
FF80
0380
0300
0600
0C00
1800
3000
6000
E000
FFC0
FFC0
ENDCHAR
STARTCHAR nonbreakingspace
ENCODING 160
SWIDTH 278 0
DWIDTH 7 0
BBX 1 1 0 0
BITMAP
00
ENDCHAR
STARTCHAR exclamdown
ENCODING 161
SWIDTH 389 0
DWIDTH 9 0
BBX 3 17 3 -5
BITMAP
E0
E0
E0
00
00
C0
C0
C0
C0
C0
E0
E0
E0
E0
E0
E0
E0
ENDCHAR
STARTCHAR cent
ENCODING 162
SWIDTH 556 0
DWIDTH 13 0
BBX 9 18 2 -3
BITMAP
0180
0100
0100
0F80
3F80
7200
E600
C600
C400
C400
CC00
6800
7800
3F80
1F80
1000
3000
3000
ENDCHAR
STARTCHAR sterling
ENCODING 163
SWIDTH 556 0
DWIDTH 13 0
BBX 10 17 2 0
BITMAP
07C0
0FC0
1800
3000
3000
3000
3000
FF00
3000
3000
3000
3000
3000
3000
3000
FFC0
FFC0
ENDCHAR
STARTCHAR currency
ENCODING 164
SWIDTH 556 0
DWIDTH 13 0
BBX 12 12 1 2
BITMAP
CF30
FFF0
70E0
E070
C030
C030
C030
C030
6060
70E0
FFF0
CF30
ENDCHAR
STARTCHAR yen
ENCODING 165
SWIDTH 556 0
DWIDTH 13 0
BBX 12 17 1 0
BITMAP
E070
E070
70E0
30C0
38C0
1980
1D80
0F00
3FC0
0600
0600
0600
3FC0
0600
0600
0600
0600
ENDCHAR
STARTCHAR brokenbar
ENCODING 166
SWIDTH 222 0
DWIDTH 5 0
BBX 2 20 2 -4
BITMAP
C0
C0
C0
C0
C0
C0
C0
C0
00
00
00
00
C0
C0
C0
C0
C0
C0
C0
C0
ENDCHAR
STARTCHAR section
ENCODING 167
SWIDTH 556 0
DWIDTH 13 0
BBX 9 20 2 -3
BITMAP
3F80
7F00
E100
C000
C000
F000
7C00
7F00
C380
C180
E180
F180
7F00
1F00
0380
0180
0180
8380
FF00
FC00
ENDCHAR
STARTCHAR dieresis
ENCODING 168
SWIDTH 278 0
DWIDTH 7 0
BBX 6 2 0 15
BITMAP
CC
CC
ENDCHAR
STARTCHAR copyright
ENCODING 169
SWIDTH 800 0
DWIDTH 19 0
BBX 17 17 1 0
BITMAP
03E000
0FF800
380E00
308600
63F300
663B00
CC1980
CC0180
CC0180
CC0180
CC1980
663300
63F300
30C600
380E00
0FF800
03E000
ENDCHAR
STARTCHAR ordfeminine
ENCODING 170
SWIDTH 361 0
DWIDTH 9 0
BBX 8 8 0 9
BITMAP
3E
67
03
3F
63
E3
6F
3B
ENDCHAR
STARTCHAR guillemotleft
ENCODING 171
SWIDTH 556 0
DWIDTH 13 0
BBX 11 9 1 2
BITMAP
1CE0
3180
6300
6300
C600
6300
6300
3180
1CE0
ENDCHAR
STARTCHAR logicalnot
ENCODING 172
SWIDTH 600 0
DWIDTH 14 0
BBX 12 7 1 3
BITMAP
FFF0
FFF0
0030
0030
0030
0030
0030
ENDCHAR
STARTCHAR hyphen.dup1
ENCODING 173
SWIDTH 333 0
DWIDTH 8 0
BBX 6 2 1 5
BITMAP
FC
FC
ENDCHAR
STARTCHAR registered
ENCODING 174
SWIDTH 800 0
DWIDTH 19 0
BBX 17 17 1 0
BITMAP
03E000
0FF800
380E00
300600
67F300
663300
C61980
C63180
C7F180
C6C180
C66180
663300
663300
300E00
380E00
0FF800
03E000
ENDCHAR
STARTCHAR macron
ENCODING 175
SWIDTH 278 0
DWIDTH 7 0
BBX 7 1 0 15
BITMAP
FE
ENDCHAR
STARTCHAR degree
ENCODING 176
SWIDTH 400 0
DWIDTH 10 0
BBX 7 7 1 10
BITMAP
38
7C
C6
C6
C6
7C
38
ENDCHAR
STARTCHAR plusminus
ENCODING 177
SWIDTH 600 0
DWIDTH 14 0
BBX 12 13 1 0
BITMAP
0600
0600
0600
0600
FFF0
FFF0
0600
0600
0600
0600
0000
FFF0
FFF0
ENDCHAR
STARTCHAR twosuperior
ENCODING 178
SWIDTH 361 0
DWIDTH 9 0
BBX 7 10 1 7
BITMAP
7C
FE
06
06
0C
1C
38
70
FE
FE
ENDCHAR
STARTCHAR threesuperior
ENCODING 179
SWIDTH 361 0
DWIDTH 9 0
BBX 7 10 1 7
BITMAP
F8
FE
06
0E
7C
7C
06
06
FE
FC
ENDCHAR
STARTCHAR acute
ENCODING 180
SWIDTH 278 0
DWIDTH 7 0
BBX 5 3 2 14
BITMAP
38
70
E0
ENDCHAR
STARTCHAR mu
ENCODING 181
SWIDTH 611 0
DWIDTH 15 0
BBX 11 17 2 -5
BITMAP
C060
C060
C060
C060
C060
C060
C060
C060
C0E0
E1E0
FFE0
FE60
C000
C000
C000
C000
C000
ENDCHAR
STARTCHAR paragraph
ENCODING 182
SWIDTH 600 0
DWIDTH 14 0
BBX 12 20 1 -3
BITMAP
3FF0
7FF0
FE30
FE30
FE30
FE30
FE30
7E30
3E30
0630
0630
0630
0630
0630
0630
0630
0630
0630
0630
0630
ENDCHAR
STARTCHAR periodcentered
ENCODING 183
SWIDTH 278 0
DWIDTH 7 0
BBX 3 3 2 6
BITMAP
E0
E0
E0
ENDCHAR
STARTCHAR cedilla
ENCODING 184
SWIDTH 278 0
DWIDTH 7 0
BBX 5 5 3 -5
BITMAP
20
70
98
18
F0
ENDCHAR
STARTCHAR onesuperior
ENCODING 185
SWIDTH 361 0
DWIDTH 9 0
BBX 5 10 1 7
BITMAP
18
78
D8
18
18
18
18
18
18
18
ENDCHAR
STARTCHAR ordmasculine
ENCODING 186
SWIDTH 397 0
DWIDTH 10 0
BBX 8 8 1 9
BITMAP
3C
6E
C3
C3
C3
C3
7E
3C
ENDCHAR
STARTCHAR guillemotright
ENCODING 187
SWIDTH 556 0
DWIDTH 13 0
BBX 11 9 1 2
BITMAP
E700
3180
18C0
18C0
0C60
18C0
18C0
3180
E700
ENDCHAR
STARTCHAR onequarter
ENCODING 188
SWIDTH 834 0
DWIDTH 20 0
BBX 19 18 0 -1
BITMAP
380600
780400
D80C00
181800
181800
183000
182000
1861C0
18C3C0
18C2C0
0186C0
018CC0
0308C0
021FE0
061FE0
0C00C0
0C00C0
180000
ENDCHAR
STARTCHAR onehalf
ENCODING 189
SWIDTH 834 0
DWIDTH 20 0
BBX 19 18 0 -1
BITMAP
380600
780400
D80C00
181800
181800
183000
182000
1867C0
18CFE0
18C060
018060
0180C0
0301C0
020380
060700
0C0FE0
0C0FE0
180000
ENDCHAR
STARTCHAR threequarters
ENCODING 190
SWIDTH 834 0
DWIDTH 20 0
BBX 18 18 1 -1
BITMAP
F80600
FE0400
060C00
0E1800
7C1800
7C3000
062000
066380
FEC780
FCC580
018D80
019980
031180
023FC0
063FC0
0C0180
0C0180
180000
ENDCHAR
STARTCHAR questiondown
ENCODING 191
SWIDTH 500 0
DWIDTH 12 0
BBX 10 17 1 -5
BITMAP
0E00
0E00
0E00
0000
0000
0C00
0C00
1C00
3800
3000
6000
6000
C000
6000
6080
3FC0
1F80
ENDCHAR
STARTCHAR Agrave
ENCODING 192
SWIDTH 722 0
DWIDTH 17 0
BBX 16 21 0 0
BITMAP
0700
0380
01C0
0000
0180
03C0
03C0
0240
0660
0660
0C30
0C30
1838
1818
1818
3FFC
3FFC
600E
6006
C006
C003
ENDCHAR
STARTCHAR Aacute
ENCODING 193
SWIDTH 722 0
DWIDTH 17 0
BBX 16 21 0 0
BITMAP
0070
00E0
01C0
0000
0180
03C0
03C0
0240
0660
0660
0C30
0C30
1838
1818
1818
3FFC
3FFC
600E
6006
C006
C003
ENDCHAR
STARTCHAR Acircumflex
ENCODING 194
SWIDTH 722 0
DWIDTH 17 0
BBX 16 21 0 0
BITMAP
0180
03C0
0660
0000
0180
03C0
03C0
0240
0660
0660
0C30
0C30
1838
1818
1818
3FFC
3FFC
600E
6006
C006
C003
ENDCHAR
STARTCHAR Atilde
ENCODING 195
SWIDTH 722 0
DWIDTH 17 0
BBX 16 21 0 0
BITMAP
0710
0FF0
0840
0000
0180
03C0
03C0
0240
0660
0660
0C30
0C30
1838
1818
1818
3FFC
3FFC
600E
6006
C006
C003
ENDCHAR
STARTCHAR Adieresis
ENCODING 196
SWIDTH 722 0
DWIDTH 17 0
BBX 16 21 0 0
BITMAP
0660
0660
0000
0000
0180
03C0
03C0
0240
0660
0660
0C30
0C30
1838
1818
1818
3FFC
3FFC
600E
6006
C006
C003
ENDCHAR
STARTCHAR Aring
ENCODING 197
SWIDTH 722 0
DWIDTH 17 0
BBX 16 23 0 0
BITMAP
01C0
0220
0220
0220
01C0
0000
0180
03C0
03C0
0240
0660
0660
0C30
0C30
1838
1818
1818
3FFC
3FFC
600E
6006
C006
C003
ENDCHAR
STARTCHAR AE
ENCODING 198
SWIDTH 944 0
DWIDTH 23 0
BBX 21 17 0 0
BITMAP
003FF8
003FF8
006C00
006C00
00CC00
01CC00
018C00
038FF8
030FF8
060600
0E0600
0FFE00
1FFE00
180600
300600
7007F8
E007F8
ENDCHAR
STARTCHAR Ccedilla
ENCODING 199
SWIDTH 611 0
DWIDTH 15 0
BBX 13 22 1 -5
BITMAP
03F0
0FF8
3C10
7000
6000
E000
C000
C000
C000
C000
C000
E000
6000
7000
3C08
1FF8
07F8
0100
0380
00C0
00C0
0780
ENDCHAR
STARTCHAR Egrave
ENCODING 200
SWIDTH 556 0
DWIDTH 13 0
BBX 9 21 2 0
BITMAP
7000
3800
1C00
0000
FF80
FF80
C000
C000
C000
C000
C000
FF80
FF80
C000
C000
C000
C000
C000
C000
FF80
FF80
ENDCHAR
STARTCHAR Eacute
ENCODING 201
SWIDTH 556 0
DWIDTH 13 0
BBX 9 21 2 0
BITMAP
0700
0E00
1C00
0000
FF80
FF80
C000
C000
C000
C000
C000
FF80
FF80
C000
C000
C000
C000
C000
C000
FF80
FF80
ENDCHAR
STARTCHAR Ecircumflex
ENCODING 202
SWIDTH 556 0
DWIDTH 13 0
BBX 9 21 2 0
BITMAP
1800
3C00
6600
0000
FF80
FF80
C000
C000
C000
C000
C000
FF80
FF80
C000
C000
C000
C000
C000
C000
FF80
FF80
ENDCHAR
STARTCHAR Edieresis
ENCODING 203
SWIDTH 556 0
DWIDTH 13 0
BBX 9 21 2 0
BITMAP
6600
6600
0000
0000
FF80
FF80
C000
C000
C000
C000
C000
FF80
FF80
C000
C000
C000
C000
C000
C000
FF80
FF80
ENDCHAR
STARTCHAR Igrave
ENCODING 204
SWIDTH 278 0
DWIDTH 7 0
BBX 5 21 0 0
BITMAP
E0
70
38
00
30
30
30
30
30
30
30
30
30
30
30
30
30
30
30
30
30
ENDCHAR
STARTCHAR Iacute
ENCODING 205
SWIDTH 278 0
DWIDTH 7 0
BBX 5 21 2 0
BITMAP
38
70
E0
00
C0
C0
C0
C0
C0
C0
C0
C0
C0
C0
C0
C0
C0
C0
C0
C0
C0
ENDCHAR
STARTCHAR Icircumflex
ENCODING 206
SWIDTH 278 0
DWIDTH 7 0
BBX 6 21 0 0
BITMAP
30
78
CC
00
30
30
30
30
30
30
30
30
30
30
30
30
30
30
30
30
30
ENDCHAR
STARTCHAR Idieresis
ENCODING 207
SWIDTH 278 0
DWIDTH 7 0
BBX 6 21 0 0
BITMAP
CC
CC
00
00
30
30
30
30
30
30
30
30
30
30
30
30
30
30
30
30
30
ENDCHAR
STARTCHAR Eth
ENCODING 208
SWIDTH 722 0
DWIDTH 17 0
BBX 15 17 0 0
BITMAP
3FC0
3FF0
3038
301C
300C
3006
3006
FF06
FF06
3006
3006
3006
300E
300C
3038
3FF0
3FC0
ENDCHAR
STARTCHAR Ntilde
ENCODING 209
SWIDTH 722 0
DWIDTH 17 0
BBX 13 21 2 0
BITMAP
1C40
3FC0
2100
0000
E018
E018
F018
D818
D818
CC18
CC18
C618
C318
C318
C198
C198
C0D8
C078
C078
C038
C038
ENDCHAR
STARTCHAR Ograve
ENCODING 210
SWIDTH 778 0
DWIDTH 19 0
BBX 16 21 1 0
BITMAP
0700
0380
01C0
0000
07E0
1FF8
383C
700C
6006
E006
C006
C003
C003
C007
C006
C006
6006
700C
381C
1FF8
07E0
ENDCHAR
STARTCHAR Oacute
ENCODING 211
SWIDTH 778 0
DWIDTH 19 0
BBX 16 21 1 0
BITMAP
0070
00E0
01C0
0000
07E0
1FF8
383C
700C
6006
E006
C006
C003
C003
C007
C006
C006
6006
700C
381C
1FF8
07E0
ENDCHAR
STARTCHAR Ocircumflex
ENCODING 212
SWIDTH 778 0
DWIDTH 19 0
BBX 16 21 1 0
BITMAP
0180
03C0
0660
0000
07E0
1FF8
383C
700C
6006
E006
C006
C003
C003
C007
C006
C006
6006
700C
381C
1FF8
07E0
ENDCHAR
STARTCHAR Otilde
ENCODING 213
SWIDTH 778 0
DWIDTH 19 0
BBX 16 21 1 0
BITMAP
0710
0FF0
0840
0000
07E0
1FF8
383C
700C
6006
E006
C006
C003
C003
C007
C006
C006
6006
700C
381C
1FF8
07E0
ENDCHAR
STARTCHAR Odieresis
ENCODING 214
SWIDTH 778 0
DWIDTH 19 0
BBX 16 21 1 0
BITMAP
0660
0660
0000
0000
07E0
1FF8
383C
700C
6006
E006
C006
C003
C003
C007
C006
C006
6006
700C
381C
1FF8
07E0
ENDCHAR
STARTCHAR multiply
ENCODING 215
SWIDTH 600 0
DWIDTH 14 0
BBX 11 11 2 1
BITMAP
4040
E0E0
71C0
3B80
1F00
0E00
1F00
3B80
71C0
E0E0
4040
ENDCHAR
STARTCHAR Oslash
ENCODING 216
SWIDTH 778 0
DWIDTH 19 0
BBX 16 17 1 0
BITMAP
07E6
1FFC
383C
701C
602E
E066
C046
C087
C103
C307
C206
E406
6C06
780C
381C
3FF8
47E0
ENDCHAR
STARTCHAR Ugrave
ENCODING 217
SWIDTH 722 0
DWIDTH 17 0
BBX 13 21 2 0
BITMAP
1C00
0E00
0700
0000
C018
C018
C018
C018
C018
C018
C018
C018
C018
C018
C018
C018
C018
6030
7070
3FE0
0F80
ENDCHAR
STARTCHAR Uacute
ENCODING 218
SWIDTH 722 0
DWIDTH 17 0
BBX 13 21 2 0
BITMAP
01C0
0380
0700
0000
C018
C018
C018
C018
C018
C018
C018
C018
C018
C018
C018
C018
C018
6030
7070
3FE0
0F80
ENDCHAR
STARTCHAR Ucircumflex
ENCODING 219
SWIDTH 722 0
DWIDTH 17 0
BBX 13 21 2 0
BITMAP
0600
0F00
1980
0000
C018
C018
C018
C018
C018
C018
C018
C018
C018
C018
C018
C018
C018
6030
7070
3FE0
0F80
ENDCHAR
STARTCHAR Udieresis
ENCODING 220
SWIDTH 722 0
DWIDTH 17 0
BBX 13 21 2 0
BITMAP
1980
1980
0000
0000
C018
C018
C018
C018
C018
C018
C018
C018
C018
C018
C018
C018
C018
6030
7070
3FE0
0F80
ENDCHAR
STARTCHAR Yacute
ENCODING 221
SWIDTH 667 0
DWIDTH 16 0
BBX 15 21 0 0
BITMAP
0070
00E0
01C0
0000
E006
700C
381C
1818
1C30
0C30
0660
0760
03C0
0180
0180
0180
0180
0180
0180
0180
0180
ENDCHAR
STARTCHAR Thorn
ENCODING 222
SWIDTH 556 0
DWIDTH 14 0
BBX 10 17 2 0
BITMAP
C000
C000
FE00
FF80
C380
C0C0
C0C0
C0C0
C0C0
C0C0
C180
FF80
FE00
C000
C000
C000
C000
ENDCHAR
STARTCHAR germandbls
ENCODING 223
SWIDTH 611 0
DWIDTH 15 0
BBX 11 18 2 0
BITMAP
1F00
3F80
60C0
E0C0
C0C0
C0C0
C0C0
C380
CF00
C1C0
C0E0
C060
C060
C060
C060
C0C0
CFC0
CF00
ENDCHAR
STARTCHAR agrave
ENCODING 224
SWIDTH 556 0
DWIDTH 13 0
BBX 10 17 1 0
BITMAP
3800
1C00
0E00
0000
0000
1F00
7F80
41C0
00C0
00C0
1FC0
78C0
C0C0
C0C0
C1C0
FFC0
3EC0
ENDCHAR
STARTCHAR aacute
ENCODING 225
SWIDTH 556 0
DWIDTH 13 0
BBX 10 17 1 0
BITMAP
0380
0700
0E00
0000
0000
1F00
7F80
41C0
00C0
00C0
1FC0
78C0
C0C0
C0C0
C1C0
FFC0
3EC0
ENDCHAR
STARTCHAR acircumflex
ENCODING 226
SWIDTH 556 0
DWIDTH 13 0
BBX 10 17 1 0
BITMAP
0C00
1E00
3300
0000
0000
1F00
7F80
41C0
00C0
00C0
1FC0
78C0
C0C0
C0C0
C1C0
FFC0
3EC0
ENDCHAR
STARTCHAR atilde
ENCODING 227
SWIDTH 556 0
DWIDTH 13 0
BBX 10 17 1 0
BITMAP
3880
7F80
4200
0000
0000
1F00
7F80
41C0
00C0
00C0
1FC0
78C0
C0C0
C0C0
C1C0
FFC0
3EC0
ENDCHAR
STARTCHAR adieresis
ENCODING 228
SWIDTH 556 0
DWIDTH 13 0
BBX 10 17 1 0
BITMAP
3300
3300
0000
0000
0000
1F00
7F80
41C0
00C0
00C0
1FC0
78C0
C0C0
C0C0
C1C0
FFC0
3EC0
ENDCHAR
STARTCHAR aring
ENCODING 229
SWIDTH 556 0
DWIDTH 13 0
BBX 10 18 1 0
BITMAP
0E00
1100
1100
1100
0E00
0000
1F00
7F80
41C0
00C0
00C0
1FC0
78C0
C0C0
C0C0
C1C0
FFC0
3EC0
ENDCHAR
STARTCHAR ae
ENCODING 230
SWIDTH 889 0
DWIDTH 21 0
BBX 19 12 1 0
BITMAP
1F1F00
7FBF80
41F0C0
00E0C0
00C060
0FC060
7FFFE0
E0C000
C0E000
C1F040
7F3FC0
3E1F80
ENDCHAR
STARTCHAR ccedilla
ENCODING 231
SWIDTH 444 0
DWIDTH 11 0
BBX 9 17 1 -5
BITMAP
0F80
3F80
7000
E000
C000
C000
C000
C000
6000
7000
3F80
0F80
0400
0E00
0300
0300
1E00
ENDCHAR
STARTCHAR egrave
ENCODING 232
SWIDTH 556 0
DWIDTH 13 0
BBX 11 17 1 0
BITMAP
3800
1C00
0E00
0000
0000
1F00
3F80
60C0
E0C0
C060
C060
FFE0
C000
C000
6040
3FC0
1FC0
ENDCHAR
STARTCHAR eacute
ENCODING 233
SWIDTH 556 0
DWIDTH 13 0
BBX 11 17 1 0
BITMAP
0380
0700
0E00
0000
0000
1F00
3F80
60C0
E0C0
C060
C060
FFE0
C000
C000
6040
3FC0
1FC0
ENDCHAR
STARTCHAR ecircumflex
ENCODING 234
SWIDTH 556 0
DWIDTH 13 0
BBX 11 17 1 0
BITMAP
0C00
1E00
3300
0000
0000
1F00
3F80
60C0
E0C0
C060
C060
FFE0
C000
C000
6040
3FC0
1FC0
ENDCHAR
STARTCHAR edieresis
ENCODING 235
SWIDTH 556 0
DWIDTH 13 0
BBX 11 17 1 0
BITMAP
3300
3300
0000
0000
0000
1F00
3F80
60C0
E0C0
C060
C060
FFE0
C000
C000
6040
3FC0
1FC0
ENDCHAR
STARTCHAR igrave
ENCODING 236
SWIDTH 278 0
DWIDTH 7 0
BBX 5 17 0 0
BITMAP
E0
70
38
00
00
30
30
30
30
30
30
30
30
30
30
30
30
ENDCHAR
STARTCHAR iacute
ENCODING 237
SWIDTH 278 0
DWIDTH 7 0
BBX 5 17 2 0
BITMAP
38
70
E0
00
00
C0
C0
C0
C0
C0
C0
C0
C0
C0
C0
C0
C0
ENDCHAR
STARTCHAR icircumflex
ENCODING 238
SWIDTH 278 0
DWIDTH 7 0
BBX 6 17 0 0
BITMAP
30
78
CC
00
00
30
30
30
30
30
30
30
30
30
30
30
30
ENDCHAR
STARTCHAR idieresis
ENCODING 239
SWIDTH 278 0
DWIDTH 7 0
BBX 6 17 0 0
BITMAP
CC
CC
00
00
00
30
30
30
30
30
30
30
30
30
30
30
30
ENDCHAR
STARTCHAR eth
ENCODING 240
SWIDTH 611 0
DWIDTH 15 0
BBX 12 18 1 0
BITMAP
3080
7FC0
0F00
3F80
7180
00C0
0FE0
3FE0
7070
6070
C030
C030
C030
C030
6070
6060
3FC0
1F80
ENDCHAR
STARTCHAR ntilde
ENCODING 241
SWIDTH 611 0
DWIDTH 15 0
BBX 11 17 2 0
BITMAP
3880
7F80
4200
0000
0000
CF80
FFC0
E0E0
E060
C060
C060
C060
C060
C060
C060
C060
C060
ENDCHAR
STARTCHAR ograve
ENCODING 242
SWIDTH 611 0
DWIDTH 15 0
BBX 12 17 1 0
BITMAP
1C00
0E00
0700
0000
0000
1F80
3FC0
7060
E070
C030
C030
C030
C030
6070
6060
3FC0
1F80
ENDCHAR
STARTCHAR oacute
ENCODING 243
SWIDTH 611 0
DWIDTH 15 0
BBX 12 17 1 0
BITMAP
01C0
0380
0700
0000
0000
1F80
3FC0
7060
E070
C030
C030
C030
C030
6070
6060
3FC0
1F80
ENDCHAR
STARTCHAR ocircumflex
ENCODING 244
SWIDTH 611 0
DWIDTH 15 0
BBX 12 17 1 0
BITMAP
0600
0F00
1980
0000
0000
1F80
3FC0
7060
E070
C030
C030
C030
C030
6070
6060
3FC0
1F80
ENDCHAR
STARTCHAR otilde
ENCODING 245
SWIDTH 611 0
DWIDTH 15 0
BBX 12 17 1 0
BITMAP
1C40
3FC0
2100
0000
0000
1F80
3FC0
7060
E070
C030
C030
C030
C030
6070
6060
3FC0
1F80
ENDCHAR
STARTCHAR odieresis
ENCODING 246
SWIDTH 611 0
DWIDTH 15 0
BBX 12 17 1 0
BITMAP
1980
1980
0000
0000
0000
1F80
3FC0
7060
E070
C030
C030
C030
C030
6070
6060
3FC0
1F80
ENDCHAR
STARTCHAR divide
ENCODING 247
SWIDTH 600 0
DWIDTH 14 0
BBX 12 14 1 -1
BITMAP
0600
0F00
0F00
0600
0000
0000
FFF0
FFF0
0000
0000
0600
0F00
0F00
0600
ENDCHAR
STARTCHAR oslash
ENCODING 248
SWIDTH 611 0
DWIDTH 15 0
BBX 12 12 1 0
BITMAP
1FB0
3FC0
70E0
E170
C130
C230
C430
C830
7070
7060
3FC0
CF80
ENDCHAR
STARTCHAR ugrave
ENCODING 249
SWIDTH 611 0
DWIDTH 15 0
BBX 11 17 1 0
BITMAP
1C00
0E00
0700
0000
0000
C060
C060
C060
C060
C060
C060
C060
C060
C0E0
E0E0
7FE0
3E60
ENDCHAR
STARTCHAR uacute
ENCODING 250
SWIDTH 611 0
DWIDTH 15 0
BBX 11 17 1 0
BITMAP
01C0
0380
0700
0000
0000
C060
C060
C060
C060
C060
C060
C060
C060
C0E0
E0E0
7FE0
3E60
ENDCHAR
STARTCHAR ucircumflex
ENCODING 251
SWIDTH 611 0
DWIDTH 15 0
BBX 11 17 1 0
BITMAP
0600
0F00
1980
0000
0000
C060
C060
C060
C060
C060
C060
C060
C060
C0E0
E0E0
7FE0
3E60
ENDCHAR
STARTCHAR udieresis
ENCODING 252
SWIDTH 611 0
DWIDTH 15 0
BBX 11 17 1 0
BITMAP
1980
1980
0000
0000
0000
C060
C060
C060
C060
C060
C060
C060
C060
C0E0
E0E0
7FE0
3E60
ENDCHAR
STARTCHAR yacute
ENCODING 253
SWIDTH 500 0
DWIDTH 12 0
BBX 12 22 0 -5
BITMAP
01C0
0380
0700
0000
0000
E070
6060
6060
30C0
30C0
3080
1980
1980
0900
0F00
0F00
0600
0600
0400
0C00
7800
7000
ENDCHAR
STARTCHAR thorn
ENCODING 254
SWIDTH 611 0
DWIDTH 15 0
BBX 11 23 2 -5
BITMAP
C000
C000
C000
C000
C000
C000
CF00
FFC0
E0C0
E060
C060
C060
C060
C060
E060
E0C0
FFC0
CF00
C000
C000
C000
C000
C000
ENDCHAR
STARTCHAR ydieresis
ENCODING 255
SWIDTH 500 0
DWIDTH 12 0
BBX 12 22 0 -5
BITMAP
1980
1980
0000
0000
0000
E070
6060
6060
30C0
30C0
3080
1980
1980
0900
0F00
0F00
0600
0600
0400
0C00
7800
7000
ENDCHAR
STARTCHAR .notdef
ENCODING -1
SWIDTH 500 0
DWIDTH 12 0
BBX 10 12 1 0
BITMAP
FFC0
8040
8040
8040
8040
8040
8040
8040
8040
8040
8040
FFC0
ENDCHAR
STARTCHAR quoteright
ENCODING -1
SWIDTH 278 0
DWIDTH 7 0
BBX 4 6 2 11
BITMAP
70
60
E0
C0
C0
C0
ENDCHAR
STARTCHAR quoteleft
ENCODING -1
SWIDTH 278 0
DWIDTH 7 0
BBX 4 6 1 11
BITMAP
30
70
70
60
E0
E0
ENDCHAR
STARTCHAR fraction.dup2
ENCODING -1
SWIDTH 167 0
DWIDTH 4 0
BBX 12 18 -4 -1
BITMAP
0030
0060
0040
00C0
0180
0180
0300
0300
0600
0400
0C00
0800
1800
3000
3000
6000
6000
C000
ENDCHAR
STARTCHAR florin
ENCODING -1
SWIDTH 556 0
DWIDTH 13 0
BBX 12 22 1 -5
BITMAP
00F0
01E0
0300
0300
0700
0600
0600
3FC0
3FC0
0600
0C00
0C00
0C00
0C00
0C00
1800
1800
1800
1800
3800
F000
E000
ENDCHAR
STARTCHAR quotedblleft
ENCODING -1
SWIDTH 556 0
DWIDTH 13 0
BBX 9 6 2 11
BITMAP
3180
7380
7380
6300
E700
E700
ENDCHAR
STARTCHAR guilsinglleft
ENCODING -1
SWIDTH 278 0
DWIDTH 7 0
BBX 6 9 0 2
BITMAP
1C
30
60
60
C0
60
60
30
1C
ENDCHAR
STARTCHAR guilsinglright
ENCODING -1
SWIDTH 278 0
DWIDTH 7 0
BBX 6 9 0 2
BITMAP
E0
30
18
18
0C
18
18
30
E0
ENDCHAR
STARTCHAR fi
ENCODING -1
SWIDTH 667 0
DWIDTH 16 0
BBX 13 18 0 0
BITMAP
0718
0F18
1818
1800
1800
1800
FF18
FF18
1818
1818
1818
1818
1818
1818
1818
1818
1818
1818
ENDCHAR
STARTCHAR fl
ENCODING -1
SWIDTH 667 0
DWIDTH 16 0
BBX 13 18 0 0
BITMAP
0718
0F18
1818
1818
1818
1818
FF18
FF18
1818
1818
1818
1818
1818
1818
1818
1818
1818
1818
ENDCHAR
STARTCHAR endash
ENCODING -1
SWIDTH 500 0
DWIDTH 12 0
BBX 12 2 0 5
BITMAP
FFF0
FFF0
ENDCHAR
STARTCHAR dagger
ENCODING -1
SWIDTH 556 0
DWIDTH 13 0
BBX 10 17 2 0
BITMAP
0C00
0C00
0C00
0C00
0C00
FFC0
FFC0
0C00
0C00
0C00
0C00
0C00
0C00
0C00
0C00
0C00
0C00
ENDCHAR
STARTCHAR daggerdbl
ENCODING -1
SWIDTH 556 0
DWIDTH 13 0
BBX 10 17 2 0
BITMAP
0C00
0C00
0C00
0C00
FFC0
FFC0
0C00
0C00
0C00
0C00
0C00
FFC0
FFC0
0C00
0C00
0C00
0C00
ENDCHAR
STARTCHAR bullet
ENCODING -1
SWIDTH 500 0
DWIDTH 12 0
BBX 8 8 2 4
BITMAP
3C
7E
FF
FF
FF
FF
7E
3C
ENDCHAR
STARTCHAR quotesinglbase
ENCODING -1
SWIDTH 278 0
DWIDTH 7 0
BBX 5 6 1 -3
BITMAP
38
30
70
60
60
E0
ENDCHAR
STARTCHAR quotedblbase
ENCODING -1
SWIDTH 556 0
DWIDTH 13 0
BBX 9 6 2 -3
BITMAP
3B80
3380
7300
6300
6700
E600
ENDCHAR
STARTCHAR quotedblright
ENCODING -1
SWIDTH 556 0
DWIDTH 13 0
BBX 10 6 2 11
BITMAP
39C0
3180
7380
6300
6300
E700
ENDCHAR
STARTCHAR ellipsis
ENCODING -1
SWIDTH 1000 0
DWIDTH 24 0
BBX 19 3 3 0
BITMAP
E0E0E0
E0E0E0
E0E0E0
ENDCHAR
STARTCHAR perthousand
ENCODING -1
SWIDTH 1000 0
DWIDTH 24 0
BBX 24 18 0 -1
BITMAP
380C00
7C0800
C61800
C63000
C63000
C66000
C64000
C6DC1C
7DBE3E
39E363
036363
036363
066363
046363
0C6363
183E3E
181C1C
300000
ENDCHAR
STARTCHAR circumflex
ENCODING -1
SWIDTH 278 0
DWIDTH 7 0
BBX 6 3 0 14
BITMAP
30
78
CC
ENDCHAR
STARTCHAR tilde
ENCODING -1
SWIDTH 278 0
DWIDTH 7 0
BBX 8 3 -1 14
BITMAP
71
FF
84
ENDCHAR
STARTCHAR breve
ENCODING -1
SWIDTH 278 0
DWIDTH 7 0
BBX 7 3 0 14
BITMAP
82
EE
78
ENDCHAR
STARTCHAR dotaccent
ENCODING -1
SWIDTH 278 0
DWIDTH 7 0
BBX 2 2 2 15
BITMAP
C0
C0
ENDCHAR
STARTCHAR ring
ENCODING -1
SWIDTH 278 0
DWIDTH 7 0
BBX 5 5 1 13
BITMAP
70
88
88
88
70
ENDCHAR
STARTCHAR hungarumlaut
ENCODING -1
SWIDTH 278 0
DWIDTH 7 0
BBX 9 3 0 14
BITMAP
3B80
6600
CC00
ENDCHAR
STARTCHAR ogonek
ENCODING -1
SWIDTH 278 0
DWIDTH 7 0
BBX 5 5 2 -5
BITMAP
30
40
C0
C8
F0
ENDCHAR
STARTCHAR caron
ENCODING -1
SWIDTH 278 0
DWIDTH 7 0
BBX 6 3 0 14
BITMAP
CC
78
30
ENDCHAR
STARTCHAR emdash
ENCODING -1
SWIDTH 1000 0
DWIDTH 24 0
BBX 24 2 0 5
BITMAP
FFFFFF
FFFFFF
ENDCHAR
STARTCHAR OE
ENCODING -1
SWIDTH 944 0
DWIDTH 23 0
BBX 20 17 1 0
BITMAP
03FFF0
0FFFF0
1C1800
301800
601800
601800
601800
C01FF0
C01FF0
E01800
601800
601800
701800
381800
1C1800
0FFFF0
03FFF0
ENDCHAR
STARTCHAR dotlessi
ENCODING -1
SWIDTH 278 0
DWIDTH 7 0
BBX 2 12 2 0
BITMAP
C0
C0
C0
C0
C0
C0
C0
C0
C0
C0
C0
C0
ENDCHAR
STARTCHAR oe
ENCODING -1
SWIDTH 944 0
DWIDTH 23 0
BBX 21 12 1 0
BITMAP
0F87C0
3FCFE0
707830
607030
C03030
C03FF8
C03000
C03000
607800
707820
3FCFE0
0F07E0
ENDCHAR
STARTCHAR trademark
ENCODING -1
SWIDTH 990 0
DWIDTH 24 0
BBX 21 10 1 7
BITMAP
FF3838
FF3838
183C38
183478
183658
1836D8
1832D8
183398
183398
183198
ENDCHAR
STARTCHAR Ydieresis
ENCODING -1
SWIDTH 667 0
DWIDTH 16 0
BBX 16 20 0 0
BITMAP
0660
0660
0000
F00F
700E
381C
1C18
1C38
0E70
0660
07E0
03C0
0180
0180
0180
0180
0180
0180
0180
0180
ENDCHAR
STARTCHAR Lslash
ENCODING -1
SWIDTH 500 0
DWIDTH 12 0
BBX 11 17 0 0
BITMAP
3000
3000
3000
3000
3000
3080
3180
3700
3C00
3800
F000
F000
3000
3000
3000
3FE0
3FE0
ENDCHAR
STARTCHAR lslash
ENCODING -1
SWIDTH 278 0
DWIDTH 7 0
BBX 6 18 0 0
BITMAP
30
30
30
30
30
34
3C
38
30
F0
B0
30
30
30
30
30
30
30
ENDCHAR
STARTCHAR minus
ENCODING -1
SWIDTH 600 0
DWIDTH 14 0
BBX 12 2 1 5
BITMAP
FFF0
FFF0
ENDCHAR
STARTCHAR Scaron
ENCODING -1
SWIDTH 500 0
DWIDTH 12 0
BBX 9 21 1 0
BITMAP
3300
1E00
0C00
0000
1F00
7F80
E100
C000
C000
C000
F000
7C00
1E00
0700
0380
0180
0180
0180
8300
FF00
7C00
ENDCHAR
STARTCHAR scaron
ENCODING -1
SWIDTH 389 0
DWIDTH 9 0
BBX 7 17 1 0
BITMAP
CC
78
30
00
00
3E
FE
C0
C0
E0
78
3C
0E
06
86
FC
F8
ENDCHAR
STARTCHAR Euro
ENCODING -1
SWIDTH 556 0
DWIDTH 13 0
BBX 14 17 0 0
BITMAP
01F8
07FC
0E08
1C00
1800
3000
FFF0
3000
3000
FFF0
3000
3800
1800
1C00
0F08
07F8
01F8
ENDCHAR
ENDFONT
